<svg xmlns="http://www.w3.org/2000/svg" xmlns:xlink="http://www.w3.org/1999/xlink" width="370" height="118" viewBox="0 0 370 118">
  <defs>
    <clipPath id="clip-path">
      <rect id="Rectangle_261" data-name="Rectangle 261" width="37" height="55.349" fill="#ccc7bf"/>
    </clipPath>
  </defs>
  <g id="Group_7158" data-name="Group 7158" transform="translate(-775 -123)">
    <rect id="Rectangle_1323" data-name="Rectangle 1323" width="370" height="118" transform="translate(775 123)" fill="#fff" opacity="0"/>
    <g id="Group_4550" data-name="Group 4550" transform="translate(941.5 154.824)">
      <g id="Group_4440" data-name="Group 4440" transform="translate(0 0.001)" clip-path="url(#clip-path)">
        <path id="Path_5834" data-name="Path 5834" d="M30.3,6.762c.457.086.436.194.867.367a8.283,8.283,0,0,1,.873.331c.418.2.344.357.768.547s.477.059.908.232.416.208.845.387.445.134.877.3.4.264.833.426.483.045.917.219.384.289.812.475.462.1.9.266a7.162,7.162,0,0,1,.874.349c.424.205.4.244.817.466a4.877,4.877,0,0,0,.821.423c.438.167.515.006.923.235.089.05.01.162.03.262.027.139.078.147.054.287a.236.236,0,0,1-.18.219,4.038,4.038,0,0,1-.934.139c-.46.075-.466.03-.928.089s-.454.128-.917.18-.464.061-.929.1-.47.006-.938.038a7.3,7.3,0,0,0-.922.121c-.466.072-.464.063-.928.139s-.46.1-.926.154-.469.019-.935.063-.476-.07-.944-.028-.449.21-.914.254-.469.01-.936.068-.47.03-.936.1-.474-.006-.943.05-.457.264-.928.245c-.139,0-.16-.092-.208-.224a6.527,6.527,0,0,1-.331-1.266c-.01-.046.094-.05.095-.1a3.112,3.112,0,0,0-.042-1.1c-.09-.411-.228-.353-.386-.745-.05-.122-.131-.16-.06-.272.24-.381.383-.278.664-.632s.3-.348.559-.716.2-.416.458-.786.23-.393.491-.765.357-.309.6-.69c.086-.132.056-.239.181-.216" transform="translate(-5.425 -1.343)" fill="#ccc7bf"/>
        <path id="Path_5835" data-name="Path 5835" d="M24.873,64.877a.935.935,0,0,1-.125-.008,1.321,1.321,0,0,1-.717-.285,1.468,1.468,0,0,1-.27-.313,1.892,1.892,0,0,0-.345-.4,2.6,2.6,0,0,0-.4-.311,2.129,2.129,0,0,1-.34-.26c-.179-.163-.272-.238-.367-.313s-.176-.14-.342-.292a2.329,2.329,0,0,1-.293-.313,2.778,2.778,0,0,0-.345-.368.534.534,0,0,0-.208-.164,3.166,3.166,0,0,0-.369-.207,3.5,3.5,0,0,1-.384-.216l-1.54-.966c-.188-.119-.28-.181-.373-.244s-.191-.13-.385-.252a3.231,3.231,0,0,1-.343-.247,3.544,3.544,0,0,0-.389-.28,1.756,1.756,0,0,0-.47-.217,1.28,1.28,0,0,1-.357-.165l-.76-.489a2.835,2.835,0,0,1-.34-.249,3.136,3.136,0,0,0-.393-.287c-.195-.123-.294-.181-.394-.238s-.192-.111-.378-.228-.3-.182-.409-.236-.192-.1-.373-.216a.861.861,0,0,1-.323-.934,3.377,3.377,0,0,0,.091-.462,3.164,3.164,0,0,1,.079-.4,1.4,1.4,0,0,1,.139-.362,1.913,1.913,0,0,0,.179-.462,4.057,4.057,0,0,0,.095-.451,3.633,3.633,0,0,1,.085-.407c.057-.22.078-.331.1-.443s.039-.207.092-.411a3.85,3.85,0,0,1,.123-.393,4.353,4.353,0,0,0,.135-.438,2.348,2.348,0,0,0,.079-.473,1.942,1.942,0,0,1,.066-.39,1.511,1.511,0,0,1,.137-.362,2.063,2.063,0,0,0,.172-.458,1.9,1.9,0,0,0,.067-.491,1.4,1.4,0,0,1,.053-.381,4.024,4.024,0,0,1,.122-.4,4.479,4.479,0,0,0,.135-.436.772.772,0,0,1,.56-.5,1.216,1.216,0,0,1,.407-.082.567.567,0,0,1,.347.107,3.124,3.124,0,0,1,.317.26,3.569,3.569,0,0,0,.361.295c.171.126.256.192.339.257s.177.138.36.271.255.192.338.258.176.139.358.271a2.683,2.683,0,0,0,.4.249,2.281,2.281,0,0,1,.341.211c.168.123.248.19.329.256s.173.145.355.277a2.26,2.26,0,0,0,.412.246,1.935,1.935,0,0,1,.337.2,1.36,1.36,0,0,1,.28.26,1.859,1.859,0,0,0,.362.337l.7.517c.181.131.276.192.371.252s.177.112.346.236a2.355,2.355,0,0,0,.409.247,2.018,2.018,0,0,1,.337.2,2.658,2.658,0,0,1,.312.26,3.044,3.044,0,0,0,.358.3c.169.123.249.191.329.257s.173.143.354.276.276.193.371.253.176.111.345.234a3.422,3.422,0,0,0,.385.249,3.467,3.467,0,0,1,.342.222,2.874,2.874,0,0,1,.313.259,3.2,3.2,0,0,0,.357.3,2.545,2.545,0,0,1,.309.258,3.056,3.056,0,0,0,.358.3c.2.147.41.325.429.531a1.594,1.594,0,0,1-.006.41,2.05,2.05,0,0,0-.008.513,3.163,3.163,0,0,0,.079.484,2.6,2.6,0,0,1,.068.423c.022.23.035.345.049.46s.026.224.047.448a2.2,2.2,0,0,1,.006.42,2.694,2.694,0,0,0,.007.5,2.919,2.919,0,0,0,.08.483,2.537,2.537,0,0,1,.07.414l.083.906a1.014,1.014,0,0,1-.739,1.206,2.557,2.557,0,0,0-.4.243,2.187,2.187,0,0,1-.333.2,3.427,3.427,0,0,1-.369.163,3.766,3.766,0,0,0-.411.18l-.759.383a1.373,1.373,0,0,1-.607.163" transform="translate(-2.603 -9.528)" fill="#ccc7bf"/>
        <path id="Path_5836" data-name="Path 5836" d="M7.832,55.061a.88.88,0,0,1-.213-.075,1.322,1.322,0,0,0-.31-.108.284.284,0,0,1-.107-.038,3.712,3.712,0,0,0-.3-.27,3.421,3.421,0,0,1-.269-.241,2.192,2.192,0,0,1-.233-.263,2.733,2.733,0,0,0-.276-.311c-.128-.127-.189-.195-.248-.263S5.74,53.342,5.6,53.2a.791.791,0,0,0-.1-.078c-.22-.172-.309-.238-.4-.305s-.167-.125-.33-.254-.262-.2-.352-.268-.17-.123-.334-.254a3.455,3.455,0,0,0-.339-.242,2.126,2.126,0,0,1-.341-.262l-.158-.252-.2-.3a2.023,2.023,0,0,1-.08-.37,2.775,2.775,0,0,0-.1-.45,4.315,4.315,0,0,0-.155-.451,3.814,3.814,0,0,1-.14-.408s-.183-.65-.247-.87a1.987,1.987,0,0,1-.08-.4,2.338,2.338,0,0,0-.1-.487,3.326,3.326,0,0,0-.163-.451,2.909,2.909,0,0,1-.143-.4c-.063-.212-.09-.319-.117-.426s-.057-.221-.121-.442-.1-.331-.139-.44-.07-.208-.131-.42-.107-.334-.147-.445-.075-.2-.136-.412a2.461,2.461,0,0,1-.088-.407,3.018,3.018,0,0,0-.1-.474,2.167,2.167,0,0,0-.19-.464A1.608,1.608,0,0,1,.515,42.4a2.214,2.214,0,0,1-.083-.4,2.586,2.586,0,0,0-.1-.481,2.69,2.69,0,0,0-.175-.456,2.285,2.285,0,0,1-.147-.385.825.825,0,0,1,.137-.528c.128-.264.222-.438.384-.5a3.074,3.074,0,0,1,.388-.133,3.433,3.433,0,0,0,.44-.15c.2-.08.3-.117.4-.153s.209-.077.415-.159.3-.115.4-.151.21-.075.419-.159a2.751,2.751,0,0,0,.423-.21,2.2,2.2,0,0,1,.357-.177c.193-.079.292-.111.391-.144s.213-.071.421-.155a2.31,2.31,0,0,0,.426-.218,1.868,1.868,0,0,1,.349-.18,1.346,1.346,0,0,1,.366-.1,1.824,1.824,0,0,0,.476-.129L7,37.1c.209-.085.31-.133.412-.183s.188-.091.381-.168a2.38,2.38,0,0,0,.423-.216,1.939,1.939,0,0,1,.35-.178,2.5,2.5,0,0,1,.383-.127,3.08,3.08,0,0,0,.442-.147c.192-.078.292-.111.39-.143s.213-.071.42-.155.309-.133.409-.181.188-.091.38-.168a3.673,3.673,0,0,0,.415-.2,3.136,3.136,0,0,1,.367-.172,2.755,2.755,0,0,1,.383-.127,3.261,3.261,0,0,0,.44-.147.536.536,0,0,1,.205-.041,1.064,1.064,0,0,1,.361.082c.237.088.446.166.52.305a.93.93,0,0,1-.026.6,3.081,3.081,0,0,0-.09.477,2.583,2.583,0,0,1-.078.414c-.057.22-.083.332-.109.443s-.051.216-.107.433a2.143,2.143,0,0,1-.135.389,2.66,2.66,0,0,0-.161.463,2.89,2.89,0,0,0-.087.478,2.367,2.367,0,0,1-.075.409l-.226.865c-.059.224-.08.338-.1.451s-.04.214-.1.423a1.408,1.408,0,0,1-.143.369,1.926,1.926,0,0,0-.184.472,2.79,2.79,0,0,0-.087.478,2.319,2.319,0,0,1-.074.408,3.77,3.77,0,0,1-.126.4,4.11,4.11,0,0,0-.14.45l-.222.866c-.059.226-.079.341-.1.456s-.038.212-.092.421a3.881,3.881,0,0,0-.095.463,3.281,3.281,0,0,1-.083.413,1.331,1.331,0,0,1-.145.361,1.768,1.768,0,0,0-.19.474,2.357,2.357,0,0,0-.081.482,2.07,2.07,0,0,1-.067.4c-.059.224-.08.338-.1.453s-.041.212-.1.422a2.148,2.148,0,0,1-.135.386,2.525,2.525,0,0,0-.161.459c-.054.208-.087.309-.122.41s-.074.22-.131.442a3.557,3.557,0,0,0-.094.466,3.13,3.13,0,0,1-.083.413L9.2,53.09c-.054.212-.086.317-.117.422s-.064.218-.121.438a.8.8,0,0,1-.285.366,3.241,3.241,0,0,0-.434.482,1.711,1.711,0,0,1-.18.213.315.315,0,0,1-.184.055.208.208,0,0,1-.049,0" transform="translate(0 -6.902)" fill="#ccc7bf"/>
        <path id="Path_5837" data-name="Path 5837" d="M28.633,49.027a.848.848,0,0,1-.5-.168c-.175-.127-.26-.193-.346-.259s-.175-.133-.352-.262a2.484,2.484,0,0,0-.406-.248,2.122,2.122,0,0,1-.341-.208,1.469,1.469,0,0,1-.283-.26,1.944,1.944,0,0,0-.361-.331,2.217,2.217,0,0,0-.414-.245,1.735,1.735,0,0,1-.337-.2A1.872,1.872,0,0,1,25,46.59a2.155,2.155,0,0,0-.358-.317c-.18-.131-.272-.192-.365-.252s-.176-.116-.346-.24a2.469,2.469,0,0,0-.4-.247,2.159,2.159,0,0,1-.337-.205,2.223,2.223,0,0,1-.3-.259,2.524,2.524,0,0,0-.359-.308c-.182-.133-.278-.192-.374-.252s-.176-.109-.343-.23-.249-.19-.329-.256-.172-.143-.353-.275a2.768,2.768,0,0,1-.312-.258,3.242,3.242,0,0,0-.356-.295,2.277,2.277,0,0,0-.406-.244,1.938,1.938,0,0,1-.335-.2c-.182-.132-.28-.191-.376-.249a3.638,3.638,0,0,1-.342-.226c-.168-.123-.248-.189-.329-.255s-.172-.143-.352-.274l-.7-.5a2.586,2.586,0,0,1-.308-.256,3.015,3.015,0,0,0-.355-.3.745.745,0,0,1-.263-.832,2.08,2.08,0,0,0,.074-.491,1.647,1.647,0,0,1,.059-.394,3.444,3.444,0,0,1,.127-.4,3.558,3.558,0,0,0,.143-.45c.054-.209.086-.313.116-.418s.065-.217.122-.437.086-.313.117-.416.065-.217.123-.437a2.716,2.716,0,0,0,.084-.47,2.36,2.36,0,0,1,.073-.4c.053-.205.087-.307.119-.408s.072-.218.129-.439a2.362,2.362,0,0,0,.08-.478,1.948,1.948,0,0,1,.067-.4,1.448,1.448,0,0,1,.141-.363A1.878,1.878,0,0,0,18.455,33l.226-.852c.057-.221.079-.333.1-.446s.039-.21.093-.416a2.441,2.441,0,0,0,.082-.475,2.06,2.06,0,0,1,.068-.4.956.956,0,0,0,.125-.166c.106-.2.164-.295.223-.391s.126-.2.238-.416.163-.321.212-.43.094-.205.2-.4a4.248,4.248,0,0,0,.208-.442,3.719,3.719,0,0,1,.187-.4,3.176,3.176,0,0,1,.226-.371,3.6,3.6,0,0,0,.256-.421,2.993,2.993,0,0,1,.226-.368,3.432,3.432,0,0,0,.256-.418,1.8,1.8,0,0,0,.185-.493,1.305,1.305,0,0,1,.141-.378,1.705,1.705,0,0,1,.232-.341,2.093,2.093,0,0,0,.291-.427,3.141,3.141,0,0,0,.2-.45,2.927,2.927,0,0,1,.177-.394c.11-.205.162-.309.214-.414s.1-.2.209-.4a2.276,2.276,0,0,1,.228-.357,2.724,2.724,0,0,0,.269-.422,3,3,0,0,0,.2-.453,2.758,2.758,0,0,1,.175-.393l.434-.81a.894.894,0,0,1,.482-.436A.355.355,0,0,1,24.929,20a1.241,1.241,0,0,1,.5.165,2.721,2.721,0,0,0,.446.187,2.373,2.373,0,0,1,.379.159,3.646,3.646,0,0,1,.369.211,4.34,4.34,0,0,0,.406.232l.793.4c.207.106.313.149.421.194s.2.083.387.179a4.014,4.014,0,0,0,.426.189,3.194,3.194,0,0,1,.381.17,1.267,1.267,0,0,1,.318.216,1.759,1.759,0,0,0,.419.287,2.363,2.363,0,0,0,.45.181,2.016,2.016,0,0,1,.373.151c.206.1.312.15.418.2s.2.084.385.181h0c-.009,0,.009.044.02.074l.032.079c.032.172.043.277.055.389s.025.226.066.44a3.665,3.665,0,0,0,.115.458,3.2,3.2,0,0,1,.1.408l.345,1.743c.04.212.057.32.075.426s.035.223.078.445a2.915,2.915,0,0,1,.054.411,3.415,3.415,0,0,0,.062.467,1.686,1.686,0,0,0,.163.483,1.223,1.223,0,0,1,.122.363l.161.872a2.619,2.619,0,0,1,.05.408,3.017,3.017,0,0,0,.059.472c.042.222.068.332.095.442s.05.21.091.422c.044.228.075.339.107.451s.057.2.1.412a3.069,3.069,0,0,1,.054.41,3.269,3.269,0,0,0,.062.465c.04.208.054.315.067.419s.03.227.074.45.067.33.093.44.048.21.09.422.067.33.091.44.047.213.089.426a3.941,3.941,0,0,0,.1.4,2.172,2.172,0,0,1,.086.445c-.02.1-.039.3-.059.492s-.036.381-.056.531a3.332,3.332,0,0,1-.194.385c-.047.083-.1.18-.182.344a3.184,3.184,0,0,1-.205.365,3.526,3.526,0,0,0-.232.414,4.272,4.272,0,0,0-.186.43,4,4,0,0,1-.168.389s-.3.593-.4.794a1.927,1.927,0,0,1-.208.341,2.245,2.245,0,0,0-.254.416,3.454,3.454,0,0,0-.181.437A2.864,2.864,0,0,1,32.07,43c-.1.2-.147.293-.2.389s-.107.2-.205.4-.145.306-.191.41-.087.2-.184.4-.143.313-.188.418-.08.2-.174.39a2.411,2.411,0,0,1-.206.353,2.811,2.811,0,0,0-.241.414,2.083,2.083,0,0,0-.17.466,1.6,1.6,0,0,1-.135.372,2.024,2.024,0,0,1-.207.344,2.478,2.478,0,0,0-.248.415,2.557,2.557,0,0,0-.176.448,2.161,2.161,0,0,1-.147.374.877.877,0,0,1-.586.422.793.793,0,0,1-.18.022" transform="translate(-3.309 -3.971)" fill="#ccc7bf"/>
        <path id="Path_5838" data-name="Path 5838" d="M1.122,32.814A.63.63,0,0,1,.9,32.777a.914.914,0,0,1-.449-.436.848.848,0,0,1-.065-.611,3.015,3.015,0,0,1,.145-.416,3.534,3.534,0,0,0,.163-.47l.251-.9a2.751,2.751,0,0,0,.1-.5,2.432,2.432,0,0,1,.084-.422c.061-.216.1-.322.138-.429s.082-.228.147-.46a3.732,3.732,0,0,1,.141-.415,4.082,4.082,0,0,0,.157-.465c.064-.227.092-.341.12-.457s.054-.221.116-.441a4.133,4.133,0,0,0,.109-.478,3.471,3.471,0,0,1,.1-.43,2,2,0,0,1,.151-.4,2.335,2.335,0,0,0,.184-.478,3.3,3.3,0,0,0,.1-.486,2.725,2.725,0,0,1,.09-.424l.079-.28c.058-.2.083-.288.167-.62a.719.719,0,0,1,.023-.208c.122-.173.182-.261.241-.35s.117-.174.237-.345.182-.248.245-.328.136-.172.262-.35a2.828,2.828,0,0,1,.247-.31,3.6,3.6,0,0,0,.279-.352c.119-.171.182-.252.245-.335s.13-.171.252-.345.858-1.185.982-1.362A1.785,1.785,0,0,0,6.2,17.093a3.709,3.709,0,0,1-.069-.466,4.019,4.019,0,0,0-.076-.519l-.289-1.374c-.034-.155-.057-.269-.115-.566a.727.727,0,0,0-.05-.175.481.481,0,0,1-.025-.081,4.388,4.388,0,0,1,.014-.449c.009-.123.018-.248.015-.494a2.5,2.5,0,0,0-.054-.526,2.129,2.129,0,0,1-.046-.439c0-.234,0-.35.009-.468s.013-.248.01-.5a2.78,2.78,0,0,1,.026-.448,3.1,3.1,0,0,0,.03-.514.812.812,0,0,1,.213-.654.864.864,0,0,1,.55-.2.806.806,0,0,1,.145.013c.226.042.341.054.455.067s.213.024.423.062a1.4,1.4,0,0,1,.373.115,1.906,1.906,0,0,0,.48.147,2.665,2.665,0,0,0,.478.05,2.347,2.347,0,0,1,.4.042,3.807,3.807,0,0,1,.409.095,4.077,4.077,0,0,0,.453.1l.866.153c.225.041.34.052.454.064s.21.021.418.059a3.632,3.632,0,0,0,.463.059,3.24,3.24,0,0,1,.412.051,1.338,1.338,0,0,1,.365.116,1.725,1.725,0,0,0,.482.154,2.311,2.311,0,0,0,.482.044,2.044,2.044,0,0,1,.4.035c.224.041.338.054.451.067s.211.023.42.061a2.113,2.113,0,0,1,.389.1,2.551,2.551,0,0,0,.465.125c.208.038.309.064.412.09s.222.056.446.1a3.261,3.261,0,0,0,.463.056,3.272,3.272,0,0,1,.408.05l1.73.305c.212.038.317.061.422.083s.219.047.438.087a.767.767,0,0,1,.584.6,1.359,1.359,0,0,0,.19.427.931.931,0,0,1,.132.3l.2.757a1.971,1.971,0,0,1,.067.349,2.328,2.328,0,0,0,.081.421.816.816,0,0,1-.176.777c-.192.205-.28.315-.369.423s-.167.206-.348.4a.164.164,0,0,0-.037.019l-.065,0-.087.131c-.1.192-.151.292-.2.393s-.094.192-.194.381-.154.3-.2.4-.095.192-.195.381-.153.3-.2.4-.091.192-.192.379-.152.3-.2.4-.086.192-.184.377l-.41.761a3.049,3.049,0,0,1-.212.348,3.541,3.541,0,0,0-.24.393,3.951,3.951,0,0,0-.195.414,3.626,3.626,0,0,1-.176.373l-.414.763a1.819,1.819,0,0,1-.216.325,2.217,2.217,0,0,0-.264.4,3.044,3.044,0,0,0-.192.423,2.651,2.651,0,0,1-.166.367c-.1.188-.153.28-.206.372s-.111.192-.215.387-.152.294-.2.394-.091.191-.191.377-.151.3-.2.4-.085.189-.182.373a2.331,2.331,0,0,1-.212.335,2.7,2.7,0,0,0-.251.4.925.925,0,0,1-.362.445,2.04,2.04,0,0,1-.381.118,2.446,2.446,0,0,0-.46.143,2.49,2.49,0,0,0-.427.215,2.268,2.268,0,0,1-.359.18,3.326,3.326,0,0,1-.391.136,4.073,4.073,0,0,0-.437.152c-.2.08-.3.117-.4.155s-.208.077-.414.159-.606.235-.809.317a2.531,2.531,0,0,0-.426.214,2,2,0,0,1-.354.179,1.486,1.486,0,0,1-.371.1,1.889,1.889,0,0,0-.474.132,2.193,2.193,0,0,0-.429.223,2.075,2.075,0,0,1-.725.293,2.315,2.315,0,0,0-.46.138c-.209.085-.31.131-.413.179s-.192.088-.386.167a2.511,2.511,0,0,0-.426.213,2.086,2.086,0,0,1-.356.179,2.108,2.108,0,0,1-.378.119,2.553,2.553,0,0,0-.452.141c-.208.085-.309.135-.41.186s-.187.093-.38.171-.295.112-.4.145-.212.071-.419.155a2.781,2.781,0,0,1-.386.129,3.3,3.3,0,0,0-.441.147,2.442,2.442,0,0,0-.425.217,1.919,1.919,0,0,1-.351.179,1.052,1.052,0,0,1-.4.083" transform="translate(-0.071 -1.833)" fill="#ccc7bf"/>
        <path id="Path_5839" data-name="Path 5839" d="M22.286,8.565a.912.912,0,0,1-.161-.014,3,3,0,0,1-.421-.1,3.709,3.709,0,0,0-.475-.115,2.652,2.652,0,0,0-.5-.049,2.312,2.312,0,0,1-.421-.039,4.456,4.456,0,0,0-.475-.066c-.11-.011-.219-.022-.435-.061s-.326-.066-.434-.091-.23-.056-.463-.1l-.9-.155a3.017,3.017,0,0,1-.415-.1,3.45,3.45,0,0,0-.474-.116l-.9-.159a2.653,2.653,0,0,0-.5-.05,2.255,2.255,0,0,1-.418-.041c-.216-.039-.323-.067-.43-.094s-.23-.059-.462-.1a3.466,3.466,0,0,1-.42-.1,4.186,4.186,0,0,0-.469-.111c-.23-.042-.345-.058-.461-.075s-.223-.031-.443-.071a3.841,3.841,0,0,0-.478-.061,3.757,3.757,0,0,1-.426-.054,1.876,1.876,0,0,1-.4-.112,2.315,2.315,0,0,0-.483-.135,3.132,3.132,0,0,0-.486-.054,2.722,2.722,0,0,1-.422-.047,1.953,1.953,0,0,0-.376-.034h-.1a.565.565,0,0,1-.285-.064c-.079-.188-.154-.346-.221-.487-.059-.123-.111-.233-.156-.345l-.349-.874A.461.461,0,0,1,8.2,4.272a1.632,1.632,0,0,0,.28-.3,2.714,2.714,0,0,1,.24-.3,3.235,3.235,0,0,0,.275-.339c.115-.161.176-.239.236-.317s.129-.165.251-.336.36-.489.479-.656c.018-.026.04-.049.119-.062a4.19,4.19,0,0,0,.512-.2,4.055,4.055,0,0,1,.4-.163,3.166,3.166,0,0,1,.422-.123,3.521,3.521,0,0,0,.476-.139L13.638.707c.278-.1.476-.151.658-.2A4.774,4.774,0,0,0,15.248.17,5.676,5.676,0,0,1,16.4.006L16.543,0a3.148,3.148,0,0,1,.818.111,1.54,1.54,0,0,0,.268.071A1.519,1.519,0,0,1,17.9.259c.131.046.264.1.4.151s.285.11.433.162.295.1.446.138.277.08.414.127c.162.058.325.108.486.159.123.038.245.076.364.116a3.125,3.125,0,0,1,.39.172,2.978,2.978,0,0,0,.434.186c.335.1.635.192.874.247a2.058,2.058,0,0,1,.706.481c.089.078.188.154.293.235a4.468,4.468,0,0,1,.47.4c.139.139.277.289.418.444l.26.281c.12.127.232.264.345.4s.2.244.3.359a.761.761,0,0,1,.192.49.744.744,0,0,1-.151.5c-.17.237-.227.325-.313.457l-.192.292a3.612,3.612,0,0,0-.232.393,2.591,2.591,0,0,1-.227.369,2.238,2.238,0,0,1-.264.314,2.789,2.789,0,0,0-.312.371c-.135.188-.195.288-.255.386s-.111.184-.236.358a.811.811,0,0,1-.664.324" transform="translate(-1.596 0)" fill="#ccc7bf"/>
      </g>
    </g>
  </g>
</svg>
